<svg xmlns="http://www.w3.org/2000/svg" viewBox="0 0 233.88 233.88"><defs><style>.cls-1,.cls-8{fill:#085;}.cls-1,.cls-5,.cls-6,.cls-7{stroke:#231f20;}.cls-1,.cls-2,.cls-3,.cls-4,.cls-5,.cls-6,.cls-7{stroke-miterlimit:10;}.cls-1,.cls-5,.cls-7{stroke-width:6.42px;}.cls-2,.cls-3,.cls-4,.cls-5,.cls-6{fill:none;}.cls-2,.cls-3,.cls-4{stroke:#fff;}.cls-2{stroke-width:5.27px;}.cls-3{stroke-width:5.23px;}.cls-4{stroke-width:5.21px;}.cls-6{stroke-width:6.48px;}.cls-7{fill:#00a651;}</style></defs><title>Asset 5</title><g id="Layer_2" data-name="Layer 2"><g id="Layer_1-2" data-name="Layer 1"><circle class="cls-1" cx="116.94" cy="116.94" r="113.73"/><line class="cls-2" x1="30.98" y1="67.48" x2="99.14" y2="67.48"/><path class="cls-2" d="M99.11,37.49a15,15,0,0,1,15,14.94s0,0,0,.06"/><path class="cls-2" d="M114.13,52.48a15,15,0,0,1-15,15h-.06"/><path class="cls-2" d="M84.14,52.48a15,15,0,0,1,15-15h0"/><line class="cls-2" x1="30.98" y1="79.06" x2="143.98" y2="79.06"/><path class="cls-2" d="M144,39.52a19.73,19.73,0,0,1,19.74,19.71s0,0,0,0"/><path class="cls-2" d="M163.72,59.26A19.73,19.73,0,0,1,144,79h0"/><path class="cls-2" d="M124.22,59.26a19.73,19.73,0,0,1,19.71-19.74H144"/><line class="cls-2" x1="30.98" y1="113.75" x2="99.14" y2="113.75"/><path class="cls-2" d="M99.11,143.74a15,15,0,0,0,15-14.94s0,0,0-.06"/><path class="cls-2" d="M114.13,128.75a15,15,0,0,0-15-15h-.06"/><path class="cls-2" d="M84.14,128.75a15,15,0,0,0,15,15h0"/><line class="cls-2" x1="30.98" y1="102.19" x2="143.98" y2="102.19"/><path class="cls-2" d="M144,141.66A19.73,19.73,0,0,0,163.72,122s0,0,0,0"/><path class="cls-2" d="M163.72,121.92A19.73,19.73,0,0,0,144,102.19h0"/><path class="cls-2" d="M124.22,121.92a19.73,19.73,0,0,0,19.71,19.74H144"/><path class="cls-2" d="M186.78,90.62A16.42,16.42,0,0,1,203.22,107"/><path class="cls-2" d="M203.22,105.87a16.42,16.42,0,0,1-16.35,16.49h-.08"/><path class="cls-2" d="M187.72,122.36A16.42,16.42,0,0,1,171.28,106s0,0,0,0"/><line class="cls-2" x1="30.98" y1="90.62" x2="187.26" y2="90.62"/><line class="cls-3" x1="44.93" y1="64.93" x2="44.93" y2="116.38"/><line class="cls-4" x1="33.48" y1="64.92" x2="33.48" y2="116.38"/><path class="cls-5" d="M81.18,160.9H28.25q2,7.92,9.92,15.84"/><line class="cls-5" x1="69.53" y1="208.2" x2="69.53" y2="160.9"/><path class="cls-6" d="M128,220.47c-4.46-21.26-7.66-43.3-10.86-63.91"/><path class="cls-6" d="M147.23,156.56c-7.73,20.6-12.54,42.65-18.82,63.83"/><path class="cls-6" d="M106.33,219.93c4.37-20.72,7.57-42.76,10.77-63.37"/><path class="cls-6" d="M87,156.56c6.13,20.6,10.94,42.65,18.69,63.4"/><path class="cls-5" d="M158.13,158.59v49.55s4.57,1.25,16.62-7.34"/><line class="cls-7" x1="154.97" y1="161.2" x2="208.99" y2="161.2"/><line class="cls-5" x1="156.7" y1="181.5" x2="192.8" y2="181.5"/><rect class="cls-8" x="100.7" y="219.06" width="31.59" height="2.89"/><rect class="cls-8" x="82.43" y="151.47" width="70.73" height="6.29"/></g></g></svg>